<svg id="图层_1" data-name="图层 1" xmlns="http://www.w3.org/2000/svg" viewBox="0 0 43 20"><defs><style>.cls-1,.cls-2{fill:none;}.cls-2{stroke:#76b7fa;stroke-width:1.5px;}</style></defs><title>bao ming biao jie shou -guan</title><path class="cls-1" d="M10,0H33A10,10,0,0,1,43,10h0A10,10,0,0,1,33,20H10A10,10,0,0,1,0,10H0A10,10,0,0,1,10,0Z" transform="translate(0 0)"/><path class="cls-2" d="M10,.75H33A9.25,9.25,0,0,1,42.25,10h0A9.25,9.25,0,0,1,33,19.25H10A9.25,9.25,0,0,1,.75,10h0A9.25,9.25,0,0,1,10,.75Z" transform="translate(0 0)"/><circle class="cls-1" cx="10" cy="10" r="8"/><circle class="cls-2" cx="10" cy="10" r="7.25"/></svg>